<?xml version="1.0" standalone="no"?>
<!DOCTYPE svg PUBLIC "-//W3C//DTD SVG 20010904//EN"
 "http://www.w3.org/TR/2001/REC-SVG-20010904/DTD/svg10.dtd">
<svg version="1.0" xmlns="http://www.w3.org/2000/svg"
 width="274.000000pt" height="204.000000pt" viewBox="0 0 274.000000 204.000000"
 preserveAspectRatio="xMidYMid meet">
<metadata>
Created by potrace 1.14, written by Peter Selinger 2001-2017
</metadata>
<g transform="translate(0.000000,204.000000) scale(0.100000,-0.100000)"
fill="#000000" stroke="none">
<path d="M1108 1883 c-7 -16 -36 -63 -65 -106 -29 -43 -53 -82 -53 -87 0 -5
-11 -12 -24 -16 -31 -7 -79 -83 -112 -175 -42 -121 -48 -147 -35 -163 9 -10 8
-15 -4 -19 -19 -8 -9 -66 14 -83 13 -10 9 -19 -27 -62 -23 -27 -42 -53 -42
-56 0 -9 30 -7 30 2 0 4 5 14 10 22 8 13 11 12 24 -5 14 -19 15 -19 35 -1 12
11 24 16 28 12 4 -4 1 -11 -7 -16 -12 -8 -10 -10 9 -10 23 0 23 -1 7 -19 -13
-14 -14 -21 -5 -27 7 -4 17 0 24 9 7 10 20 14 33 10 16 -4 22 -1 22 12 0 9 6
15 13 12 6 -2 11 -11 9 -21 -2 -9 4 -16 13 -16 8 0 15 -4 15 -9 0 -15 -18 -23
-25 -11 -3 5 -10 10 -16 10 -11 0 -13 -30 -1 -30 4 0 13 -4 21 -9 12 -8 12
-12 2 -25 -11 -13 -9 -17 14 -26 14 -5 39 -10 55 -10 16 0 35 -6 42 -13 13
-13 45 -29 63 -33 56 -9 107 -57 90 -84 -10 -17 -91 -7 -114 14 -10 9 -25 16
-33 16 -22 0 -104 36 -112 49 -4 6 -22 11 -41 11 -19 0 -37 5 -41 11 -4 6 -20
8 -39 5 -23 -5 -34 -2 -38 8 -4 10 0 12 15 8 18 -4 20 -2 14 22 -6 23 -3 28
21 36 42 15 56 25 52 35 -2 6 -11 9 -19 7 -8 -2 -26 -3 -39 -3 -14 1 -34 -8
-46 -19 -23 -22 -55 -18 -55 6 0 8 9 23 20 34 17 17 21 18 26 6 3 -8 12 -12
20 -9 21 8 17 23 -5 23 -11 0 -23 5 -26 10 -10 16 -23 12 -30 -10 -6 -20 -45
-29 -45 -10 0 6 -8 5 -19 -2 -13 -8 -17 -16 -11 -23 7 -8 2 -16 -15 -25 -14
-7 -25 -19 -25 -27 0 -7 -4 -13 -10 -13 -5 0 -10 -6 -10 -12 0 -7 -14 -33 -30
-58 -33 -50 -33 -49 -20 -70 7 -12 12 -10 31 10 l21 25 -8 -25 c-4 -14 -7 -35
-6 -48 2 -19 -2 -22 -17 -17 -12 4 -21 0 -25 -11 -5 -13 -9 -15 -18 -6 -20 20
-56 14 -69 -10 -7 -13 -25 -35 -41 -50 -15 -14 -28 -37 -28 -50 0 -26 69 -166
105 -214 25 -33 145 -119 205 -146 176 -82 264 -83 427 -5 76 36 87 48 108
117 9 30 20 64 25 75 35 88 60 197 58 261 -1 57 3 78 19 100 11 16 22 35 25
43 8 28 46 -28 51 -77 8 -79 44 -200 88 -297 10 -22 21 -51 24 -65 4 -14 18
-43 30 -66 21 -36 32 -43 102 -66 43 -15 111 -34 150 -43 70 -17 75 -17 138 1
36 10 65 22 65 26 0 5 6 8 13 8 18 0 154 90 216 143 67 57 75 74 101 198 17
79 19 107 11 131 -13 38 -56 82 -71 73 -6 -4 -21 0 -34 8 -18 12 -26 13 -36 4
-10 -10 -11 -7 -5 13 7 23 7 23 -10 7 -10 -10 -19 -16 -21 -14 -7 7 8 37 18
37 6 0 5 6 -2 15 -7 8 -17 15 -23 15 -13 0 -77 42 -77 51 0 3 9 15 20 26 18
20 18 22 3 35 -15 11 -16 11 -10 -4 7 -19 -16 -49 -36 -47 -9 0 -8 2 1 6 6 2
12 9 12 15 0 6 -7 7 -16 4 -8 -3 -12 -2 -9 4 3 5 -5 15 -19 22 -32 14 -32 22
-4 42 17 12 19 16 6 16 -9 0 -18 -6 -21 -14 -3 -8 -14 -15 -24 -15 -10 1 -35
-3 -56 -6 -33 -7 -37 -6 -31 10 6 15 3 17 -19 13 -15 -3 -27 -1 -27 3 0 5 -7
9 -16 9 -11 0 -15 6 -11 20 6 22 -8 28 -16 8 -3 -10 -13 -9 -37 5 -30 16 -34
16 -57 1 -32 -20 -38 -13 -13 14 21 22 19 26 -12 23 -10 -1 -18 4 -18 13 0 10
-6 13 -15 10 -8 -4 -15 -2 -15 3 0 5 21 20 48 34 39 20 51 22 70 13 19 -9 20
-13 9 -23 -8 -6 -23 -9 -33 -5 -14 4 -16 3 -5 -4 7 -5 11 -14 7 -20 -11 -19
11 -22 48 -7 42 18 49 19 41 5 -3 -5 0 -10 8 -10 10 0 13 7 10 20 -5 19 -3 21
40 24 6 1 12 -9 13 -20 1 -12 13 -35 28 -50 14 -16 26 -32 26 -36 0 -5 9 1 20
12 19 19 26 40 14 40 -4 0 -13 -8 -20 -17 -12 -17 -13 -17 -14 -1 0 10 -9 22
-21 29 -15 8 -18 14 -10 22 7 7 14 7 24 -2 12 -9 16 -8 20 3 6 15 -14 38 -29
35 -5 -1 -19 -1 -31 0 -32 1 -29 21 2 21 32 0 45 28 22 45 -10 7 -17 18 -17
26 0 11 -2 11 -10 -1 -5 -8 -12 -11 -16 -7 -4 4 -13 -1 -20 -11 -10 -13 -16
-14 -24 -6 -9 9 -5 15 16 25 35 18 41 35 13 42 l-21 6 21 27 c25 31 20 45 -7
21 -31 -28 -34 -19 -6 18 29 39 26 43 -13 18 -24 -16 -26 -16 -21 -2 4 9 2 21
-3 26 -6 6 -4 14 6 23 19 16 19 35 1 57 -8 10 -27 33 -41 51 -15 17 -33 32
-41 32 -8 0 -14 4 -14 9 0 5 -16 19 -35 31 -19 12 -61 56 -92 99 l-58 77 -50
-12 c-28 -7 -51 -13 -53 -13 -11 0 -122 -55 -122 -62 0 -10 40 -23 47 -15 4 3
1 6 -5 6 -7 0 -12 6 -12 13 0 6 11 1 23 -13 12 -14 29 -25 37 -24 9 0 10 -1 3
-3 -18 -6 -16 -23 2 -23 8 0 15 -4 15 -10 0 -5 -7 -10 -15 -10 -8 0 -15 4 -15
9 0 9 -29 20 -69 26 -14 2 -28 11 -33 19 -4 8 -16 12 -26 9 -10 -2 -24 3 -31
11 -8 9 -19 16 -27 16 -20 0 -28 21 -13 31 9 6 10 9 2 9 -6 0 -14 -4 -17 -9
-10 -15 -54 11 -48 28 4 11 0 13 -16 9 -15 -4 -22 -2 -22 8 0 8 -10 14 -25 14
-18 0 -29 -8 -37 -27z m186 -592 c20 -22 22 -16 -39 -119 -16 -29 -36 -52 -43
-52 -9 0 -11 -7 -7 -21 6 -19 4 -21 -14 -16 -27 7 -39 -16 -21 -38 10 -12 9
-20 -6 -42 -11 -18 -19 -23 -22 -14 -2 7 1 18 7 24 18 18 12 37 -12 37 -30 0
-53 36 -36 57 10 12 10 16 -1 23 -8 5 -11 12 -7 17 5 4 12 1 18 -7 6 -11 11
-12 17 -3 4 6 19 14 34 18 16 4 29 16 32 31 4 13 20 37 36 54 17 17 30 40 30
50 0 25 12 25 34 1z m496 -243 c0 -16 -5 -19 -21 -15 -13 3 -19 1 -16 -6 2 -7
13 -12 24 -12 12 0 24 -3 28 -7 3 -3 18 0 32 7 23 12 30 12 54 -6 29 -20 64
-25 73 -10 3 5 15 7 25 4 10 -3 30 0 42 7 22 10 22 10 7 -3 -23 -18 -23 -27 1
-27 10 0 31 -6 46 -14 15 -8 34 -12 41 -9 8 3 14 0 14 -7 0 -7 6 -10 14 -7 11
4 14 -3 11 -29 -2 -31 -1 -33 14 -21 28 24 41 29 35 13 -3 -8 -12 -17 -20 -20
-8 -3 -14 -11 -14 -18 0 -10 3 -9 9 1 8 12 12 12 26 -2 15 -16 15 -18 -1 -34
-13 -13 -19 -14 -22 -5 -7 21 -20 13 -27 -18 -4 -16 -11 -32 -16 -35 -23 -15
-5 -24 39 -18 106 12 181 -77 116 -138 -20 -19 -36 -24 -75 -23 -43 0 -47 -1
-36 -15 7 -9 18 -28 24 -42 28 -66 -65 -117 -133 -72 -25 16 -25 16 -19 -9 9
-34 -19 -86 -52 -99 -36 -14 -79 5 -95 42 -7 16 -15 29 -18 29 -3 0 -13 -14
-22 -30 -53 -93 -158 -44 -145 67 7 60 29 83 84 83 37 0 46 -4 61 -30 l19 -30
22 30 c17 24 29 30 60 30 22 0 42 -6 44 -12 3 -7 6 -1 6 15 1 15 11 37 22 48
18 18 30 20 70 17 l48 -5 -25 32 c-13 18 -24 38 -24 45 0 7 -7 10 -15 6 -8 -3
-15 -1 -15 5 0 6 -9 8 -20 4 -11 -4 -20 -2 -20 4 0 6 -7 11 -15 11 -36 0 -4
-27 39 -34 5 0 11 -6 13 -13 8 -22 -16 -23 -52 -3 -19 11 -42 20 -50 20 -8 0
-15 5 -15 11 0 5 -5 7 -10 4 -14 -8 6 -27 48 -46 36 -16 38 -36 2 -31 -15 3
-20 0 -15 -8 8 -13 -14 -32 -27 -24 -4 3 -5 18 -1 34 3 19 1 30 -6 30 -6 0
-11 -9 -11 -19 0 -11 -6 -22 -12 -24 -10 -4 -9 -8 2 -16 12 -8 12 -13 2 -23
-10 -10 -14 -10 -21 0 -11 18 -4 84 12 109 4 6 3 14 -2 17 -12 8 -34 -21 -26
-34 3 -5 0 -13 -8 -15 -21 -8 -67 12 -67 30 0 21 27 19 39 -2 9 -16 10 -16 11
5 0 16 -6 22 -20 22 -11 0 -23 7 -26 15 -10 25 -25 17 -18 -10 5 -21 3 -25
-15 -25 -23 0 -28 19 -8 39 10 10 8 12 -8 9 -30 -5 -34 -85 -5 -116 26 -28 45
-30 30 -3 -5 11 -15 23 -20 26 -6 3 -10 10 -10 16 0 16 30 10 53 -11 19 -18
20 -22 7 -31 -11 -8 -12 -12 -2 -16 28 -11 12 -32 -24 -31 -39 1 -84 34 -84
61 0 8 -6 18 -12 20 -9 4 -9 8 -3 14 6 4 10 33 10 64 l1 56 -26 -14 c-33 -17
-45 -17 -30 2 7 8 19 15 26 15 8 0 14 10 14 25 0 16 6 25 16 25 14 0 14 -3 4
-15 -15 -18 -4 -20 14 -2 11 10 11 15 0 25 -19 17 -32 15 -46 -8 -7 -11 -18
-20 -25 -20 -7 0 -13 -7 -13 -15 0 -8 -7 -15 -15 -15 -20 0 -19 17 1 28 9 5
14 17 12 28 -3 18 -4 18 -25 -3 -11 -11 -31 -24 -43 -28 -19 -6 -21 -4 -16 13
4 11 2 23 -4 27 -5 3 -10 2 -10 -3 0 -5 -14 -9 -30 -10 l-31 -1 43 43 c27 27
46 39 50 32 5 -6 8 -1 8 12 0 30 22 24 31 -9 6 -21 7 -21 8 9 1 34 21 46 21
12 0 -11 5 -20 10 -20 21 0 9 37 -20 62 -30 26 -39 48 -20 48 6 0 10 -7 10
-15 0 -16 40 -21 54 -7 4 4 13 7 19 7 7 0 13 13 15 28 2 20 8 27 17 23 8 -3
17 -1 20 5 10 14 25 0 25 -23z m-527 -47 c19 -8 23 -15 20 -35 -6 -29 14 -37
24 -10 4 11 13 14 29 10 24 -6 34 9 12 16 -8 3 -4 9 10 17 19 10 28 10 48 -4
25 -16 32 -35 13 -35 -6 0 -9 -6 -6 -14 3 -8 -5 -19 -19 -26 -13 -8 -23 -18
-22 -24 0 -6 -4 -24 -10 -39 -7 -16 -10 -32 -8 -35 2 -4 -9 -8 -26 -9 -29 -2
-30 -1 -26 34 4 32 1 37 -24 47 -17 6 -28 18 -28 29 0 14 -5 17 -22 12 -17 -6
-20 -4 -15 10 4 9 7 18 7 20 0 2 9 1 20 -2 11 -3 20 0 20 6 0 6 -9 11 -20 11
-13 0 -18 5 -14 15 7 18 6 18 37 6z m-353 -115 c28 -14 64 -27 80 -31 16 -4
53 -18 82 -32 29 -14 60 -26 68 -27 26 -3 84 -32 99 -49 12 -15 10 -18 -10
-25 -25 -10 -114 9 -132 27 -5 5 -16 7 -23 4 -8 -3 -22 1 -31 8 -13 11 -17 11
-21 1 -2 -8 -14 -2 -35 18 -17 16 -36 30 -43 30 -26 0 -100 39 -112 59 -27 46
5 52 78 17z"/>
</g>
</svg>
